<?xml version="1.0" standalone="no"?>
<!DOCTYPE svg PUBLIC "-//W3C//DTD SVG 20010904//EN"
 "http://www.w3.org/TR/2001/REC-SVG-20010904/DTD/svg10.dtd">
<svg version="1.0" xmlns="http://www.w3.org/2000/svg"
 width="500.000000pt" height="500.000000pt" viewBox="0 0 500.000000 500.000000"
 preserveAspectRatio="xMidYMid meet">
<metadata>
Created by potrace 1.14, written by Peter Selinger 2001-2017
</metadata>
<g transform="translate(0.000000,500.000000) scale(0.100000,-0.100000)"
fill="#000000" stroke="none">
<path d="M2329 4995 c-2 -1 -40 -6 -83 -10 -43 -4 -88 -8 -100 -11 -11 -2 -38
-6 -61 -9 -153 -23 -417 -99 -555 -162 -30 -14 -73 -32 -95 -41 -22 -8 -45
-19 -51 -24 -6 -4 -42 -24 -80 -44 -122 -64 -312 -194 -429 -293 -100 -86
-271 -265 -348 -366 -196 -258 -335 -530 -421 -820 -35 -119 -50 -178 -61
-245 -3 -19 -10 -60 -15 -90 -25 -152 -34 -451 -17 -625 61 -649 400 -1280
907 -1691 115 -93 252 -184 394 -263 70 -39 132 -71 136 -71 4 0 36 -13 71
-29 124 -56 373 -133 499 -155 224 -39 531 -54 700 -36 288 32 513 87 747 185
151 64 392 197 473 262 8 6 43 33 78 59 35 26 82 63 105 83 52 44 255 247 282
281 11 14 36 45 55 70 19 25 37 47 40 50 4 3 41 57 83 121 67 100 187 322 225
415 85 210 156 488 179 707 12 110 8 461 -6 562 -28 206 -88 442 -154 610 -49
127 -158 333 -233 446 -38 56 -73 110 -79 119 -5 9 -30 41 -55 70 -25 30 -54
66 -65 80 -24 31 -227 234 -275 275 -38 33 -214 164 -241 180 -9 6 -56 34
-105 64 -269 163 -610 283 -928 326 -23 3 -59 8 -81 11 -44 6 -431 15 -436 9z
m633 -1278 c331 -67 546 -287 609 -622 16 -88 18 -258 4 -355 -33 -220 -105
-368 -237 -484 -52 -46 -188 -120 -238 -130 -14 -2 -57 -11 -96 -19 -50 -9
-162 -14 -380 -15 -170 -1 -325 -1 -345 -2 l-36 0 0 -542 0 -543 -274 -3 -274
-2 0 1365 0 1366 620 -4 c341 -2 632 -7 647 -10z"/>
<path d="M2246 3180 c-2 -3 -3 -125 -3 -272 0 -237 2 -268 16 -269 66 -4 558
0 607 4 77 8 103 18 142 56 41 42 50 88 48 257 -2 176 -14 202 -107 220 -41 8
-699 12 -703 4z"/>
</g>
</svg>
